<svg id="a" xmlns="http://www.w3.org/2000/svg" viewBox="0 0 512 512"><ellipse cx="255.69" cy="460.74" rx="211.89" ry="51.26" style="fill:#9b8fc1;"/><g><path d="m481.29,238.08c0,63.1-41.03,150.3-90.64,197.93-22,21.15-45.7,34.5-68.26,34.5-14.26,0-28.48-2.29-40.72-5.98-16.76-5.07-34.59-5.07-51.36,0-12.23,3.69-26.46,5.98-40.72,5.98-23.64,0-48.53-14.66-71.42-37.6-48.18-48.24-87.48-133.09-87.48-194.83,0-91.1,54.49-146.14,105.74-159.42,24.55-6.36,53.03-2.26,76.03,3.72,23.79,6.2,48.51,7.24,72.6,3.11,4.86-.84,9.68-1.87,14.46-3.11,23-5.98,51.47-10.08,76.03-3.72,51.24,13.28,105.74,68.32,105.74,159.42Z" style="fill:#f04b4b;"/><path d="m390.65,436.01c-60.88,10.76-107.78,7.78-143.11-.78-57.7-13.97-100.62-62.64-107.77-121.57-17.92-147.6,78.52-190.57,78.52-190.57,15.18,6.9,31.33,8.1,43.07,7.74v-43.02c-16.4.51-32.86-1.26-48.89-5.44-23-5.98-51.48-10.08-76.03-3.72-51.24,13.28-105.74,68.32-105.74,159.42s85.52,232.44,158.9,232.44c14.26,0,28.48-2.29,40.72-5.98,16.76-5.07,34.59-5.07,51.36,0,12.23,3.69,26.46,5.98,40.72,5.98,22.56,0,46.26-13.35,68.26-34.5,0,0,0,0,0,0Z" style="fill:#ed3a38;"/><path d="m258.77,144.4c-19.99,0-40.22-6.5-60.54-19.49-3.3-2.11-4.26-6.5-2.15-9.8,2.11-3.3,6.49-4.27,9.8-2.16,35.98,23.02,70.09,23.04,104.26.09,3.25-2.19,7.66-1.32,9.84,1.93,2.18,3.25,1.32,7.66-1.93,9.84-19.43,13.05-39.23,19.58-59.27,19.58Z" style="fill:#51357b;"/><path d="m258.07,137.99c-.36,0-.72-.02-1.08-.08-3.87-.59-6.53-4.21-5.94-8.08,7.98-52.22-.85-89.66-27.77-117.84-2.71-2.83-2.61-7.32.23-10.03,2.84-2.71,7.32-2.6,10.03.23,30.22,31.61,40.24,72.85,31.54,129.78-.54,3.51-3.56,6.02-7,6.02Z" style="fill:#51357b;"/><path d="m322.39,477.61c-14.36,0-29.15-2.17-42.77-6.29-15.46-4.68-31.8-4.68-47.25,0-13.62,4.12-28.41,6.29-42.77,6.29-24.1,0-50.54-13.72-76.44-39.69-50.21-50.28-89.55-138.06-89.55-199.84,0-94.47,57.56-152.42,111.05-166.29,21.7-5.62,48.47-4.37,79.59,3.72,22.9,5.97,46.32,6.98,69.62,2.99,4.65-.8,9.32-1.8,13.88-2.99,31.11-8.1,57.89-9.35,79.59-3.72,53.48,13.87,111.05,71.82,111.05,166.29,0,63.88-40.77,153.07-92.82,203.05-24.82,23.86-50.12,36.48-73.17,36.48Zm-66.39-23.98c9.33,0,18.66,1.37,27.73,4.12,12.31,3.72,25.68,5.68,38.66,5.68,19.31,0,41.21-11.25,63.34-32.52,48.78-46.84,88.47-133.34,88.47-192.82,0-86.93-52.06-140.02-100.43-152.56-19.07-4.94-44.12-3.66-72.46,3.72-4.95,1.29-10.01,2.37-15.05,3.24-25.3,4.33-50.73,3.24-75.59-3.24-28.34-7.37-53.4-8.66-72.46-3.72-48.37,12.54-100.43,65.63-100.43,152.56,0,58.49,37.52,141.87,85.41,189.82,23.19,23.24,46.15,35.52,66.4,35.52,12.98,0,26.35-1.96,38.66-5.68,9.07-2.74,18.4-4.11,27.73-4.11Z" style="fill:#51357b;"/></g><g style="opacity:.9;"><path d="m414.43,297.83c-.76,0-1.52-.12-2.28-.38-3.71-1.26-5.69-5.29-4.43-9,5.44-16.01,8.82-31.44,10.06-45.86,1.49-17.49-.21-32.89-5.05-45.8-1.38-3.67.48-7.76,4.15-9.13,3.67-1.37,7.76.48,9.13,4.15,5.59,14.89,7.58,32.39,5.91,51.99-1.33,15.56-4.95,32.12-10.76,49.22-1,2.95-3.76,4.81-6.71,4.81Z" style="fill:#fff;"/></g></svg>