<svg id="a" xmlns="http://www.w3.org/2000/svg" viewBox="0 0 512 512"><ellipse cx="255.27" cy="463.43" rx="200.77" ry="48.57" style="fill:#9b8fc1;"/><g><path d="m429.08,134.69c-6.58-11.12-14.22-21.62-22.85-31.28-23.72-26.57-54.55-46.6-88.47-57.46-19.34-6.19-39.96-9.55-61.36-9.55s-41.86,3.33-61.15,9.48c-24.25,7.74-46.51,19.95-65.81,35.68-40.4,32.94-66.93,81.19-72.81,133-.86,7.6-1.29,15.25-1.29,22.9,0,111.04,90.02,201.06,201.06,201.06s201.06-90.02,201.06-201.06c0-35.97-10.05-71.78-28.38-102.77Z" style="fill:#3baa5a;"/><path d="m256.41,445.24c-114.57,0-207.78-93.21-207.78-207.78,0-7.9.45-15.86,1.33-23.66,6.05-53.3,33.47-103.4,75.24-137.45,20.3-16.55,43.18-28.95,68.01-36.87,20.39-6.5,41.65-9.8,63.19-9.8s42.96,3.32,63.41,9.87c35.17,11.26,66.79,31.8,91.43,59.39,8.84,9.89,16.78,20.77,23.62,32.33,19.18,32.42,29.32,69.14,29.32,106.19,0,114.57-93.21,207.78-207.78,207.78Zm0-402.12c-20.15,0-40.04,3.08-59.1,9.16-23.22,7.4-44.62,19.01-63.6,34.48-39.07,31.86-64.73,78.71-70.38,128.55-.83,7.29-1.25,14.74-1.25,22.14,0,107.16,87.18,194.34,194.34,194.34s194.34-87.18,194.34-194.34c0-34.64-9.49-69-27.45-99.35h0c-6.4-10.81-13.82-20.98-22.08-30.22-23.04-25.8-52.61-45.01-85.5-55.54-19.13-6.12-39.08-9.23-59.31-9.23Z" style="fill:#51357b;"/></g><path d="m256.41,74.7c-89.89,0-162.76,72.87-162.76,162.76s72.87,162.76,162.76,162.76,162.76-72.87,162.76-162.76-72.87-162.76-162.76-162.76Z" style="fill:#eaf2d2;"/><g style="opacity:.26;"><path d="m253.12,36.46c-20.14.33-39.57,3.58-57.86,9.42-24.25,7.74-46.51,19.95-65.81,35.68-40.4,32.94-66.93,81.19-72.81,133-.86,7.6-1.29,15.25-1.29,22.9,0,109.94,88.25,199.21,197.77,200.98V36.46Z" style="fill:#24783c;"/></g><g><circle cx="256.41" cy="237.46" r="17.59" style="fill:#f8961d;"/><path d="m256.41,261.77c-13.41,0-24.31-10.91-24.31-24.31s10.91-24.31,24.31-24.31,24.31,10.91,24.31,24.31-10.91,24.31-24.31,24.31Zm0-35.18c-5.99,0-10.87,4.88-10.87,10.87s4.88,10.87,10.87,10.87,10.87-4.88,10.87-10.87-4.88-10.87-10.87-10.87Z" style="fill:#51357b;"/></g><g><path d="m253.94,112.57c-3.71,0-6.72-3.01-6.72-6.72v-21.06c0-3.71,3.01-6.72,6.72-6.72s6.72,3.01,6.72,6.72v21.06c0,3.71-3.01,6.72-6.72,6.72Z" style="fill:#51357b;"/><path d="m253.94,396.84c-3.71,0-6.72-3.01-6.72-6.72v-21.06c0-3.71,3.01-6.72,6.72-6.72s6.72,3.01,6.72,6.72v21.06c0,3.71-3.01,6.72-6.72,6.72Z" style="fill:#51357b;"/></g><g><path d="m124.8,244.18h-21.06c-3.71,0-6.72-3.01-6.72-6.72s3.01-6.72,6.72-6.72h21.06c3.71,0,6.72,3.01,6.72,6.72s-3.01,6.72-6.72,6.72Z" style="fill:#51357b;"/><path d="m409.07,244.18h-21.06c-3.71,0-6.72-3.01-6.72-6.72s3.01-6.72,6.72-6.72h21.06c3.71,0,6.72,3.01,6.72,6.72s-3.01,6.72-6.72,6.72Z" style="fill:#51357b;"/></g><g><path d="m96.01,470.52c-1.72,0-3.44-.66-4.75-1.97-2.62-2.62-2.62-6.88,0-9.5l52.64-52.64c2.62-2.62,6.88-2.62,9.5,0,2.62,2.62,2.62,6.88,0,9.5l-52.64,52.64c-1.31,1.31-3.03,1.97-4.75,1.97Z" style="fill:#51357b;"/><path d="m411.87,470.52c-1.72,0-3.44-.66-4.75-1.97l-52.64-52.64c-2.62-2.62-2.62-6.88,0-9.5s6.88-2.62,9.5,0l52.64,52.64c2.62,2.62,2.62,6.88,0,9.5-1.31,1.31-3.03,1.97-4.75,1.97Z" style="fill:#51357b;"/></g><path d="m238.15,244.18h-84.23c-3.71,0-6.72-3.01-6.72-6.72s3.01-6.72,6.72-6.72h84.23c3.71,0,6.72,3.01,6.72,6.72s-3.01,6.72-6.72,6.72Z" style="fill:#51357b;"/><path d="m270.61,231.29c-2.06,0-4.1-.95-5.42-2.74-2.2-2.99-1.56-7.19,1.43-9.39l50.89-37.43c2.99-2.2,7.19-1.56,9.39,1.43,2.2,2.99,1.56,7.19-1.43,9.39l-50.89,37.43c-1.2.88-2.59,1.31-3.98,1.31Z" style="fill:#51357b;"/><g><path d="m111.82,94.23c-1.07,1.05-2.12,2.12-3.17,3.19-.05.05-.1.1-.15.15-1.02,1.06-2.03,2.12-3.03,3.2-.07.07-.14.15-.2.22-.98,1.06-1.95,2.13-2.91,3.22-.08.09-.16.18-.24.27-.95,1.07-1.88,2.16-2.81,3.25-.09.1-.17.2-.26.31-.92,1.09-1.82,2.19-2.72,3.3-.09.11-.18.22-.26.33-.89,1.11-1.77,2.23-2.64,3.35-.09.11-.17.23-.26.34-.87,1.13-1.72,2.27-2.56,3.42-.08.11-.16.22-.24.33-.84,1.16-1.68,2.32-2.5,3.5-.07.1-.14.21-.21.31-.83,1.19-1.64,2.38-2.44,3.59-.06.09-.12.18-.18.27-.81,1.22-1.6,2.45-2.39,3.7-.04.07-.09.14-.13.21-.79,1.26-1.58,2.54-2.34,3.82-.03.04-.05.09-.08.13-.78,1.31-1.55,2.64-2.31,3.97h0c-16.31-13.7-26.68-34.23-26.68-57.19,0-41.24,33.43-74.68,74.68-74.68,28.41,0,53.12,15.87,65.74,39.23-30.32,9.71-57.5,26.41-79.65,48.21-.03.02-.05.05-.07.07Z" style="fill:#faa71a;"/><path d="m77.8,145.31c-1.57,0-3.1-.55-4.32-1.57-18.48-15.52-29.07-38.25-29.07-62.34C44.41,36.51,80.92,0,125.8,0c29.94,0,57.4,16.38,71.65,42.75.95,1.76,1.07,3.85.32,5.7-.75,1.86-2.28,3.28-4.18,3.89-28.74,9.2-55.36,25.31-76.99,46.6-.01.01-.03.03-.04.04-.01.01-.02.02-.03.03-1.03,1.01-2.05,2.04-3.06,3.08-.02.02-.19.2-.21.22-.91.94-1.89,1.98-2.86,3.02l-5.13-4.35,4.94,4.56c-.95,1.03-1.89,2.07-2.82,3.12l-5.27-4.19,5.04,4.45c-.92,1.04-1.82,2.09-2.72,3.14l-.26.31c-.88,1.04-1.75,2.1-2.61,3.17l-.29.36c-.83,1.03-1.67,2.1-2.51,3.2l-.3.39c-.78,1.02-1.61,2.12-2.42,3.24l-5.66-3.64,5.43,3.96c-.82,1.12-1.62,2.25-2.41,3.39l-.23.34c-.77,1.11-1.56,2.27-2.33,3.43l-.17.27c-.78,1.18-1.55,2.37-2.31,3.57-.89,1.42-1.65,2.65-2.39,3.89-.02.04-.12.2-.15.25-.68,1.15-1.43,2.43-2.16,3.72-.98,1.74-2.69,2.95-4.65,3.31-.4.07-.8.11-1.2.11ZM125.8,13.44c-37.47,0-67.96,30.49-67.96,67.96,0,17.43,6.65,34,18.46,46.55.18-.29.36-.57.54-.86.02-.03.17-.28.2-.31.75-1.19,1.57-2.46,2.41-3.73.02-.03.17-.25.18-.28.83-1.24,1.67-2.48,2.52-3.71,0,0,.22-.31.22-.32.85-1.21,1.71-2.42,2.58-3.61,0,0,.24-.34.25-.34.87-1.19,1.75-2.36,2.64-3.53l.24-.31c.93-1.21,1.84-2.36,2.76-3.51l.3-.37c.89-1.11,1.83-2.25,2.78-3.37l.24-.28c.99-1.17,1.95-2.29,2.93-3.4.01-.01.17-.19.18-.2,1.06-1.2,2.06-2.3,3.07-3.4,0,0,.21-.23.21-.23,1.03-1.11,2.07-2.22,3.13-3.3,1.24-1.27,2.33-2.37,3.43-3.46.02-.02.05-.04.07-.07h0c21.08-20.74,46.6-36.9,74.24-47.04-12.65-17.99-33.3-28.88-55.61-28.88Zm-13.99,80.79h.03-.03Z" style="fill:#51357b;"/></g><path d="m77.8,145.31c-1.57,0-3.1-.55-4.32-1.57-18.48-15.52-29.07-38.25-29.07-62.34C44.41,36.51,80.92,0,125.8,0c29.94,0,57.4,16.38,71.65,42.75.95,1.76,1.07,3.85.32,5.7-.75,1.86-2.28,3.28-4.18,3.89-28.74,9.2-55.36,25.31-76.99,46.6-.01.01-.03.03-.04.04-.01.01-.02.02-.03.03-1.03,1.01-2.05,2.04-3.06,3.08-.02.02-.19.2-.21.22-.91.94-1.89,1.98-2.86,3.02l-5.13-4.35,4.94,4.56c-.95,1.03-1.89,2.07-2.82,3.12l-5.27-4.19,5.04,4.45c-.92,1.04-1.82,2.09-2.72,3.14l-.26.31c-.88,1.04-1.75,2.1-2.61,3.17l-.29.36c-.83,1.03-1.67,2.1-2.51,3.2l-.3.39c-.78,1.02-1.61,2.12-2.42,3.24l-5.66-3.64,5.43,3.96c-.82,1.12-1.62,2.25-2.41,3.39l-.23.34c-.77,1.11-1.56,2.27-2.33,3.43l-.17.27c-.78,1.18-1.55,2.37-2.31,3.57-.89,1.42-1.65,2.65-2.39,3.89-.02.04-.12.2-.15.25-.68,1.15-1.43,2.43-2.16,3.72-.98,1.74-2.69,2.95-4.65,3.31-.4.07-.8.11-1.2.11ZM125.8,13.44c-37.47,0-67.96,30.49-67.96,67.96,0,17.43,6.65,34,18.46,46.55.18-.29.36-.57.54-.86.02-.03.17-.28.2-.31.75-1.19,1.57-2.46,2.41-3.73.02-.03.17-.25.18-.28.83-1.24,1.67-2.48,2.52-3.71,0,0,.22-.31.22-.32.85-1.21,1.71-2.42,2.58-3.61,0,0,.24-.34.25-.34.87-1.19,1.75-2.36,2.64-3.53l.24-.31c.93-1.21,1.84-2.36,2.76-3.51l.3-.37c.89-1.11,1.83-2.25,2.78-3.37l.24-.28c.99-1.17,1.95-2.29,2.93-3.4.01-.01.17-.19.18-.2,1.06-1.2,2.06-2.3,3.07-3.4,0,0,.21-.23.21-.23,1.03-1.11,2.07-2.22,3.13-3.3,1.24-1.27,2.33-2.37,3.43-3.46.02-.02.05-.04.07-.07h0c21.08-20.74,46.6-36.9,74.24-47.04-12.65-17.99-33.3-28.88-55.61-28.88Zm-13.99,80.79h.03-.03Z" style="fill:#51357b;"/><path d="m141.01,8.3c-4.91-1.02-9.99-1.58-15.2-1.58-41.24,0-74.68,33.44-74.68,74.68,0,20.03,7.9,38.21,20.73,51.62.71-2.29,1.5-4.54,2.28-6.8,1.75-49.45,27.93-92.65,66.86-117.92Z" style="fill:#f47a20;"/><path d="m77.8,145.31c-1.57,0-3.1-.55-4.32-1.57-18.48-15.52-29.07-38.25-29.07-62.34C44.41,36.51,80.92,0,125.8,0c29.94,0,57.4,16.38,71.65,42.75.95,1.76,1.07,3.85.32,5.7-.75,1.86-2.28,3.28-4.18,3.89-28.74,9.2-55.36,25.31-76.99,46.6-.01.01-.03.03-.04.04-.01.01-.02.02-.03.03-1.03,1.01-2.05,2.04-3.06,3.08-.02.02-.19.2-.21.22-.91.94-1.89,1.98-2.86,3.02l-5.13-4.35,4.94,4.56c-.95,1.03-1.89,2.07-2.82,3.12l-5.27-4.19,5.04,4.45c-.92,1.04-1.82,2.09-2.72,3.14l-.26.31c-.88,1.04-1.75,2.1-2.61,3.17l-.29.36c-.83,1.03-1.67,2.1-2.51,3.2l-.3.39c-.78,1.02-1.61,2.12-2.42,3.24l-5.66-3.64,5.43,3.96c-.82,1.12-1.62,2.25-2.41,3.39l-.23.34c-.77,1.11-1.56,2.27-2.33,3.43l-.17.27c-.78,1.18-1.55,2.37-2.31,3.57-.89,1.42-1.65,2.65-2.39,3.89-.02.04-.12.2-.15.25-.68,1.15-1.43,2.43-2.16,3.72-.98,1.74-2.69,2.95-4.65,3.31-.4.07-.8.11-1.2.11ZM125.8,13.44c-37.47,0-67.96,30.49-67.96,67.96,0,17.43,6.65,34,18.46,46.55.18-.29.36-.57.54-.86.02-.03.17-.28.2-.31.75-1.19,1.57-2.46,2.41-3.73.02-.03.17-.25.18-.28.83-1.24,1.67-2.48,2.52-3.71,0,0,.22-.31.22-.32.85-1.21,1.71-2.42,2.58-3.61,0,0,.24-.34.25-.34.87-1.19,1.75-2.36,2.64-3.53l.24-.31c.93-1.21,1.84-2.36,2.76-3.51l.3-.37c.89-1.11,1.83-2.25,2.78-3.37l.24-.28c.99-1.17,1.95-2.29,2.93-3.4.01-.01.17-.19.18-.2,1.06-1.2,2.06-2.3,3.07-3.4,0,0,.21-.23.21-.23,1.03-1.11,2.07-2.22,3.13-3.3,1.24-1.27,2.33-2.37,3.43-3.46.02-.02.05-.04.07-.07h0c21.08-20.74,46.6-36.9,74.24-47.04-12.65-17.99-33.3-28.88-55.61-28.88Zm-13.99,80.79h.03-.03Z" style="fill:#51357b;"/><g><g><path d="m400.18,94.23c1.07,1.05,2.12,2.12,3.17,3.19.05.05.1.1.15.15,1.02,1.06,2.03,2.12,3.03,3.2.07.07.14.15.2.22.98,1.06,1.95,2.13,2.91,3.22.08.09.16.18.24.27.95,1.07,1.88,2.16,2.81,3.25.09.1.17.2.26.31.92,1.09,1.82,2.19,2.72,3.3.09.11.18.22.26.33.89,1.11,1.77,2.23,2.64,3.35.09.11.17.23.26.34.87,1.13,1.72,2.27,2.56,3.42.08.11.16.22.24.33.84,1.16,1.68,2.32,2.5,3.5.07.1.14.21.21.31.83,1.19,1.64,2.38,2.44,3.59.06.09.12.18.18.27.81,1.22,1.6,2.45,2.39,3.7.04.07.09.14.13.21.79,1.26,1.58,2.54,2.34,3.82.03.04.05.09.08.13.78,1.31,1.55,2.64,2.31,3.97h0c16.31-13.7,26.68-34.23,26.68-57.19,0-41.24-33.43-74.68-74.68-74.68-28.41,0-53.12,15.87-65.74,39.23,30.32,9.71,57.5,26.41,79.65,48.21.03.02.05.05.07.07Z" style="fill:#faa71a;"/><path d="m434.2,145.31c-.4,0-.8-.03-1.19-.11-1.96-.35-3.67-1.56-4.65-3.3-.73-1.29-1.47-2.57-2.23-3.84-.03-.05-.13-.23-.16-.28-.66-1.09-1.41-2.33-2.18-3.55-.88-1.39-1.65-2.59-2.43-3.77,0-.01-.14-.22-.15-.23-.8-1.19-1.58-2.35-2.38-3.5,0,0-.22-.31-.22-.31-.79-1.13-1.59-2.26-2.41-3.38l-.28-.39c-.77-1.04-1.59-2.15-2.43-3.24l-.25-.33c-.84-1.09-1.69-2.17-2.55-3.24-.02-.03-.23-.29-.25-.32-.86-1.07-1.74-2.13-2.62-3.18l-.25-.29c-.9-1.06-1.8-2.11-2.71-3.15l4.79-4.72-5.02,4.46c-.93-1.05-1.87-2.09-2.82-3.12l4.73-4.78-4.93,4.57c-.96-1.04-1.94-2.07-2.92-3.09-.02-.02-.18-.19-.2-.2-.96-.98-1.98-2.01-3.01-3.03-.01-.01-.02-.02-.03-.04l4.75-4.75-4.76,4.75c-21.66-21.31-48.28-37.43-77.02-46.63-1.9-.61-3.44-2.03-4.18-3.89-.75-1.85-.63-3.94.32-5.7C328.8,16.38,356.25,0,386.19,0c44.88,0,81.4,36.51,81.4,81.4,0,24.09-10.6,46.81-29.07,62.34-1.22,1.03-2.75,1.57-4.32,1.57Zm-4.35-26.25c.86,1.23,1.7,2.46,2.52,3.71,0,0,.19.28.19.28.83,1.27,1.66,2.54,2.46,3.82.23.37.45.72.67,1.07,11.82-12.55,18.46-29.12,18.46-46.55,0-37.47-30.49-67.96-67.96-67.96-22.31,0-42.96,10.89-55.61,28.88,27.62,10.14,53.14,26.29,74.22,47.02.04.03.07.07.1.09h0c1.1,1.08,2.19,2.18,3.27,3.29.02.02.19.19.21.22,1.01,1.03,2.05,2.14,3.08,3.25,0,0,.21.22.21.23,1.01,1.09,2.01,2.2,3,3.31,0,0,.25.28.26.29.98,1.11,1.95,2.23,2.9,3.36l.25.3c.96,1.14,1.9,2.28,2.82,3.43l.2.24c.99,1.24,1.9,2.39,2.8,3.56l.21.28c.95,1.24,1.83,2.41,2.7,3.6l.23.31c.9,1.23,1.76,2.43,2.6,3.65l-5.3,4.15,5.51-3.84Z" style="fill:#51357b;"/></g><path d="m434.2,145.31c-.4,0-.8-.03-1.19-.11-1.96-.35-3.67-1.56-4.65-3.3-.73-1.29-1.47-2.57-2.23-3.84-.03-.05-.13-.23-.16-.28-.66-1.09-1.41-2.33-2.18-3.55-.88-1.39-1.65-2.59-2.43-3.77,0-.01-.14-.22-.15-.23-.8-1.19-1.58-2.35-2.38-3.5,0,0-.22-.31-.22-.31-.79-1.13-1.59-2.26-2.41-3.38l-.28-.39c-.77-1.04-1.59-2.15-2.43-3.24l-.25-.33c-.84-1.09-1.69-2.17-2.55-3.24-.02-.03-.23-.29-.25-.32-.86-1.07-1.74-2.13-2.62-3.18l-.25-.29c-.9-1.06-1.8-2.11-2.71-3.15l4.79-4.72-5.02,4.46c-.93-1.05-1.87-2.09-2.82-3.12l4.73-4.78-4.93,4.57c-.96-1.04-1.94-2.07-2.92-3.09-.02-.02-.18-.19-.2-.2-.96-.98-1.98-2.01-3.01-3.03-.01-.01-.02-.02-.03-.04l4.75-4.75-4.76,4.75c-21.66-21.31-48.28-37.43-77.02-46.63-1.9-.61-3.44-2.03-4.18-3.89-.75-1.85-.63-3.94.32-5.7C328.8,16.38,356.25,0,386.19,0c44.88,0,81.4,36.51,81.4,81.4,0,24.09-10.6,46.81-29.07,62.34-1.22,1.03-2.75,1.57-4.32,1.57Zm-4.35-26.25c.86,1.23,1.7,2.46,2.52,3.71,0,0,.19.28.19.28.83,1.27,1.66,2.54,2.46,3.82.23.37.45.72.67,1.07,11.82-12.55,18.46-29.12,18.46-46.55,0-37.47-30.49-67.96-67.96-67.96-22.31,0-42.96,10.89-55.61,28.88,27.62,10.14,53.14,26.29,74.22,47.02.04.03.07.07.1.09h0c1.1,1.08,2.19,2.18,3.27,3.29.02.02.19.19.21.22,1.01,1.03,2.05,2.14,3.08,3.25,0,0,.21.22.21.23,1.01,1.09,2.01,2.2,3,3.31,0,0,.25.28.26.29.98,1.11,1.95,2.23,2.9,3.36l.25.3c.96,1.14,1.9,2.28,2.82,3.43l.2.24c.99,1.24,1.9,2.39,2.8,3.56l.21.28c.95,1.24,1.83,2.41,2.7,3.6l.23.31c.9,1.23,1.76,2.43,2.6,3.65l-5.3,4.15,5.51-3.84Z" style="fill:#51357b;"/><path d="m370.99,8.3c4.91-1.02,9.99-1.58,15.2-1.58,41.24,0,74.68,33.44,74.68,74.68,0,20.03-7.9,38.21-20.73,51.62-.71-2.29-1.5-4.54-2.28-6.8-1.75-49.45-27.93-92.65-66.86-117.92Z" style="fill:#f47a20;"/><path d="m434.2,145.31c-.4,0-.8-.03-1.19-.11-1.96-.35-3.67-1.56-4.65-3.3-.73-1.29-1.47-2.57-2.23-3.84-.03-.05-.13-.23-.16-.28-.66-1.09-1.41-2.33-2.18-3.55-.88-1.39-1.65-2.59-2.43-3.77,0-.01-.14-.22-.15-.23-.8-1.19-1.58-2.35-2.38-3.5,0,0-.22-.31-.22-.31-.79-1.13-1.59-2.26-2.41-3.38l-.28-.39c-.77-1.04-1.59-2.15-2.43-3.24l-.25-.33c-.84-1.09-1.69-2.17-2.55-3.24-.02-.03-.23-.29-.25-.32-.86-1.07-1.74-2.13-2.62-3.18l-.25-.29c-.9-1.06-1.8-2.11-2.71-3.15l4.79-4.72-5.02,4.46c-.93-1.05-1.87-2.09-2.82-3.12l4.73-4.78-4.93,4.57c-.96-1.04-1.94-2.07-2.92-3.09-.02-.02-.18-.19-.2-.2-.96-.98-1.98-2.01-3.01-3.03-.01-.01-.02-.02-.03-.04l4.75-4.75-4.76,4.75c-21.66-21.31-48.28-37.43-77.02-46.63-1.9-.61-3.44-2.03-4.18-3.89-.75-1.85-.63-3.94.32-5.7C328.8,16.38,356.25,0,386.19,0c44.88,0,81.4,36.51,81.4,81.4,0,24.09-10.6,46.81-29.07,62.34-1.22,1.03-2.75,1.57-4.32,1.57Zm-4.35-26.25c.86,1.23,1.7,2.46,2.52,3.71,0,0,.19.28.19.28.83,1.27,1.66,2.54,2.46,3.82.23.37.45.72.67,1.07,11.82-12.55,18.46-29.12,18.46-46.55,0-37.47-30.49-67.96-67.96-67.96-22.31,0-42.96,10.89-55.61,28.88,27.62,10.14,53.14,26.29,74.22,47.02.04.03.07.07.1.09h0c1.1,1.08,2.19,2.18,3.27,3.29.02.02.19.19.21.22,1.01,1.03,2.05,2.14,3.08,3.25,0,0,.21.22.21.23,1.01,1.09,2.01,2.2,3,3.31,0,0,.25.28.26.29.98,1.11,1.95,2.23,2.9,3.36l.25.3c.96,1.14,1.9,2.28,2.82,3.43l.2.24c.99,1.24,1.9,2.39,2.8,3.56l.21.28c.95,1.24,1.83,2.41,2.7,3.6l.23.31c.9,1.23,1.76,2.43,2.6,3.65l-5.3,4.15,5.51-3.84Z" style="fill:#51357b;"/></g><path d="m256.41,445.24c-114.57,0-207.78-93.21-207.78-207.78,0-7.9.45-15.86,1.33-23.66,6.05-53.3,33.47-103.4,75.24-137.45,20.3-16.55,43.18-28.95,68.01-36.87,20.39-6.5,41.65-9.8,63.19-9.8s42.96,3.32,63.41,9.87c35.17,11.26,66.79,31.8,91.43,59.39,8.84,9.89,16.78,20.77,23.62,32.33,19.18,32.42,29.32,69.14,29.32,106.19,0,114.57-93.21,207.78-207.78,207.78Zm0-402.12c-20.15,0-40.04,3.08-59.1,9.16-23.22,7.4-44.62,19.01-63.6,34.48-39.07,31.86-64.73,78.71-70.38,128.55-.83,7.29-1.25,14.74-1.25,22.14,0,107.16,87.18,194.34,194.34,194.34s194.34-87.18,194.34-194.34c0-34.64-9.49-69-27.45-99.35h0c-6.4-10.81-13.82-20.98-22.08-30.22-23.04-25.8-52.61-45.01-85.5-55.54-19.13-6.12-39.08-9.23-59.31-9.23Z" style="fill:#51357b;"/><g style="opacity:.9;"><path d="m198.2,363.33c-.83,0-1.67-.15-2.49-.48-14.03-5.6-27.58-15.39-40.26-29.1-10.07-10.88-19.38-24.01-27.66-39.02-1.79-3.25-.61-7.34,2.64-9.13,3.25-1.8,7.34-.61,9.13,2.64,7.76,14.06,16.42,26.3,25.76,36.39,11.32,12.23,23.22,20.89,35.38,25.75,3.45,1.38,5.12,5.29,3.75,8.73-1.05,2.63-3.57,4.23-6.24,4.23Z" style="fill:#fff;"/></g></svg>