<svg id="a" xmlns="http://www.w3.org/2000/svg" viewBox="0 0 512 512"><ellipse cx="257.13" cy="457.23" rx="226.37" ry="54.77" style="fill:#9b8fc1;"/><g><g style="opacity:.9;"><path d="m156.47,393.57c-3.22,0-6.21-2.07-7.22-5.3-4.44-14.08-7.06-27.78-7.8-40.7-.93-16.33,1.15-31,6.2-43.59,1.56-3.88,5.96-5.77,9.85-4.21,3.88,1.55,5.77,5.96,4.22,9.85-4.21,10.52-5.94,23-5.13,37.1.67,11.67,3.06,24.12,7.12,37.01,1.26,3.99-.96,8.24-4.95,9.5-.76.24-1.53.35-2.28.35Z" style="fill:#fff;"/></g><g><path d="m141.75,37.41c33.77-19,72.74-29.83,114.25-29.83,128.87,0,233.34,104.47,233.34,233.34s-104.47,233.34-233.34,233.34S22.66,369.79,22.66,240.92c0-50.35,15.95-96.98,43.07-135.11,7.96-11.2,16.89-21.66,26.66-31.27,8-7.86,16.56-15.16,25.62-21.81,7.58-5.57,15.51-10.69,23.75-15.33" style="fill:#f5c359;"/><path d="m256,481.83c-132.84,0-240.92-108.07-240.92-240.92,0-50.36,15.38-98.6,44.47-139.5,8.18-11.5,17.44-22.36,27.52-32.27,8.24-8.1,17.13-15.68,26.44-22.51,7.83-5.75,16.08-11.08,24.52-15.82h0C173.86,10.65,214.65,0,256,0c132.84,0,240.92,108.08,240.92,240.92s-108.07,240.92-240.92,240.92ZM145.47,44.01h0c-7.91,4.45-15.64,9.44-22.98,14.83-8.73,6.41-17.07,13.51-24.79,21.11-9.45,9.3-18.13,19.47-25.8,30.26-27.26,38.32-41.67,83.52-41.67,130.71,0,124.49,101.28,225.76,225.77,225.76s225.77-101.28,225.77-225.76S380.49,15.15,256,15.15c-38.75,0-76.97,9.98-110.53,28.86Z" style="fill:#51357b;"/></g><circle cx="256" cy="240.92" r="199.11" style="fill:#fcd463;"/><path d="m256.1,415.82c-11.5-.66-22.86-1.76-33.89-3.94l2.58-13.15c10.21,2.01,20.7,3.02,31.12,3.02l1.74,12.11v1.95h-1.55Zm34.04-4l-2.62-13.15c10.31-2.05,20.45-5.13,30.14-9.16l5.14,12.37c-10.5,4.36-21.49,7.7-32.67,9.93Zm-100.62-9.79c-10.52-4.35-20.65-9.75-30.12-16.08l7.44-11.14c8.74,5.83,18.09,10.83,27.8,14.84l-5.12,12.39Zm163.38-16.28l-7.46-11.13c8.72-5.84,16.91-12.58,24.34-20.02l9.48,9.47c-8.05,8.06-16.92,15.36-26.36,21.69Zm-219.91-21.42c-8.06-8.03-15.36-16.89-21.71-26.33l11.13-7.48c5.86,8.72,12.61,16.9,20.05,24.32l-9.46,9.49Zm267.92-26.64l-11.14-7.45c5.85-8.74,10.85-18.09,14.87-27.78l12.38,5.13c-4.35,10.5-9.77,20.63-16.11,30.11Zm-305.8-29.77c-4.38-10.51-7.73-21.5-9.96-32.66l13.14-2.62c2.06,10.3,5.15,20.43,9.19,30.13l-12.37,5.16Zm331.17-32.97l-13.64-2.6c2.1-10.27,3.17-20.82,3.17-31.37v-.7h13.9v.7c0,11.42-1.15,22.85-3.44,33.97Zm-344.17-33.67v-.35c0-11.3,1.09-22.61,3.24-33.61l13.15,2.57c-1.98,10.15-2.99,20.59-2.99,31.04l-13.4.35Zm25.11-61.56l-12.39-5.1c4.33-10.52,9.73-20.66,16.04-30.14l11.16,7.43c-5.83,8.75-10.81,18.11-14.81,27.82Zm34.75-52.22l-9.5-9.45c8.03-8.07,16.88-15.39,26.32-21.74l7.49,11.12c-8.71,5.86-16.89,12.62-24.3,20.07Zm202.9-20.64c-8.76-5.82-18.13-10.79-27.83-14.78l5.09-12.4c10.51,4.32,20.66,9.71,30.15,16.01l-7.41,11.17Zm-150.86-14.39l-5.17-12.37c10.5-4.39,21.48-7.75,32.65-9.99l2.64,13.14c-10.3,2.07-20.43,5.17-30.12,9.22Zm92.85-9.42c-10.1-1.96-20.49-2.96-30.87-2.96l-.37-9.35.25-4.06c11.11.05,22.61,1.08,33.55,3.21l-2.56,13.15Z" style="fill:#faa71a;"/><path d="m335.48,216.6c-1.33-11.57-9.29-15.74-19.16-15.74-7.97,0-15.93,3.22-23.71,7.77l.38,30.54c0,22.76,4.17,31.68,11.95,37.75,3.79,2.85,9.29,4.36,15.17,4.36,6.64,0,11.57-1.7,14.99-4.74-1.14-8.34-5.31-18.4-10.62-29.21,3.42-5.69,7.02-11.57,11.38-17.26h.95c6.07,13.66,9.67,25.99,9.67,34.14s-2.28,16.88-7.02,25.23c-5.5,9.48-13.66,14.79-24.66,14.79-18.4,0-31.68-14.98-31.68-46.85,0-12.9-.76-26.74-1.33-41.16l-.57-.57c-7.02,6.07-13.47,12.71-19.35,19.16.38,10.05.57,20.86.57,32.05,0,15.37-2.09,30.16-6.26,44.01-11.57,17.83-30.54,29.4-49.89,29.4-25.8,0-40.97-20.11-40.97-48.18,0-13.47,3.98-28.64,13.09-45.14l4.55,2.65c-5.31,12.14-7.4,22.38-7.4,30.92,0,18.78,12.14,34.71,30.73,34.71,13.84,0,24.09-5.31,33.38-12.71,7.77-6.26,11.76-11.57,12.9-16.31,0-13.66-.57-26.74-1.52-39.45l-.57-.38c-1.52,1.71-2.84,3.6-5.12,6.26-13.47,15.55-22,23.33-34.14,23.33s-23.52-13.09-23.52-31.49c0-19.35,7.59-38.88,21.62-58.61l4.55,3.22c-10.62,16.5-16.31,30.35-16.31,41.35,0,6.83,1.33,11.76,3.23,14.99,3.41,6.07,8.91,7.21,12.52,7.21,10.43,0,22.19-10.24,36.04-25.8-1.52-22.57-2.85-43.24-4.36-58.23-1.7-7.21-4.17-14.22-4.17-19.16,0-6.26,7.21-18.59,13.28-25.61l2.09,1.14c-.38,2.27-.38,4.36-.38,6.64,0,8.54,5.12,19.35,14.04,30.92l-11.57,11.38,2.09,41.73h.76c6.64-6.83,13.09-13.09,19.73-18.59-.76-15.74-2.27-35.66-4.55-61.65,3.42-5.5,6.83-10.62,10.62-15.74l1.52.38c3.03,18.59,3.98,42.3,3.98,68.48h.57c10.24-7.21,20.11-11.38,29.02-11.38,11.19,0,19.92,5.88,19.92,18.02,0,6.64-1.52,14.42-4.17,22.19l-2.28-.76Zm-38.88,100.34c7.21,4.17,14.04,9.29,20.11,15.36-3.04,5.88-7.02,11.19-11.57,15.94-6.64-5.88-13.47-10.81-20.11-15.17l11.57-16.12Zm30.73-2.85c7.02,4.55,13.47,9.87,19.35,15.94-3.03,6.26-6.83,11.19-10.81,15.93-6.26-5.88-12.9-11-19.54-15.74l11-16.12Z" style="fill:#99592a;"/><path d="m413.64,208.9c-2.08-10.29-5.19-20.42-9.26-30.11l12.36-5.18c4.4,10.5,7.78,21.48,10.03,32.64l-13.13,2.65Z" style="fill:#faa71a;"/><path d="m389.4,151.07c-5.87-8.7-12.63-16.86-20.1-24.28l9.44-9.51c8.08,8.02,15.4,16.87,21.76,26.29l-11.1,7.5Z" style="fill:#faa71a;"/><g style="opacity:.9;"><path d="m131.2,248.49c-4.18,0-7.58-3.39-7.58-7.58,0-27.67,8.45-54.18,24.44-76.65,4.5-6.32,9.58-12.29,15.12-17.73,4.52-4.45,9.41-8.61,14.53-12.37,4.29-3.15,8.82-6.08,13.47-8.69,3.65-2.06,8.27-.76,10.32,2.89,2.05,3.65.76,8.27-2.89,10.32-4.12,2.32-8.13,4.91-11.93,7.7-4.53,3.33-8.86,7.02-12.87,10.96-4.91,4.83-9.42,10.11-13.4,15.71-14.15,19.9-21.63,43.37-21.63,67.87,0,4.18-3.39,7.58-7.58,7.58Z" style="fill:#fff;"/></g></g></svg>