<svg id="a" xmlns="http://www.w3.org/2000/svg" viewBox="0 0 512 512"><ellipse cx="256" cy="465.71" rx="191.34" ry="46.29" style="fill:#9b8fc1;"/><path d="m395.27,113.22c26.12,49.66,41.82,111.48,41.82,173.94,0,142.02-81.21,190.86-181.39,190.86s-181.39-48.84-181.39-190.86S155.53,6.4,255.7,6.4c37.57,0,72.47,19.51,101.42,51.39,14.3,15.75,27.15,34.51,38.15,55.43" style="fill:#fbf1c4;"/><path d="m97.86,161.85c-13.37,38.9-20.98,81.94-20.98,125.31,0,35.72,5.15,65.53,14.43,90.17,110.83,28.62,221.66,29.14,332.49,3.51,10.16-25.31,15.85-56.22,15.85-93.68,0-42.33-7.26-84.35-20.04-122.51-107.24,18.01-214.5,16.95-321.75-2.8Z" style="fill:#0fab50;"/><path d="m437.09,289.05c0,6.9-.19,13.58-.58,20.04h-.08c-9.12-11.84-22.7-17.76-36.26-17.76s-27.15,5.92-36.27,17.76c-9.11,11.85-22.69,17.77-36.26,17.77s-27.13-5.92-36.26-17.77c-9.12-11.84-22.69-17.76-36.26-17.76s-27.13,5.92-36.28,17.76c-9.14,11.85-22.69,17.77-36.26,17.77s-27.11-5.92-36.26-17.77c-4.87-6.32-11-10.95-17.72-13.9-18.03-7.91-40.3-3.69-53.78,12.67-.34-6.08-.51-12.35-.51-18.81,0-12.84.66-25.65,1.94-38.35,14.39-15.84,37.44-19.01,55.33-9.54,5.56,2.93,10.61,7.08,14.74,12.44,9.15,11.85,22.7,17.77,36.26,17.77s27.12-5.92,36.26-17.77c9.15-11.84,22.72-17.76,36.28-17.76s27.13,5.92,36.26,17.76c9.12,11.85,22.7,17.77,36.26,17.77s27.15-5.92,36.26-17.77c9.12-11.84,22.7-17.76,36.27-17.76s26.02,5.45,35.12,16.34c1.18,12.21,1.8,24.53,1.8,36.87Z" style="fill:#fcc447;"/><g style="opacity:.3;"><path d="m128.56,287.16c0-128.95,66.95-255.19,154.27-277.33-8.85-2.24-17.9-3.43-27.12-3.43-100.18,0-181.39,138.73-181.39,280.75s81.21,190.86,181.39,190.86c9.22,0,18.27-.42,27.12-1.28-87.31-8.5-154.27-60.63-154.27-189.58Z" style="fill:#f16062;"/></g><g><ellipse cx="329.83" cy="231.34" rx="19.08" ry="18.9" style="fill:#f2685d;"/><ellipse cx="181.58" cy="231.34" rx="19.08" ry="18.9" style="fill:#f2685d;"/></g><ellipse cx="110.94" cy="331.38" rx="19.08" ry="18.9" style="fill:#e85750;"/><g><ellipse cx="255.71" cy="331.38" rx="19.08" ry="18.9" style="fill:#f2685d;"/><ellipse cx="400.48" cy="331.38" rx="19.08" ry="18.9" style="fill:#f2685d;"/></g><path d="m255.7,484.42c-56.1,0-100.7-14.75-132.58-43.85-36.64-33.44-55.21-85.06-55.21-153.42s19.72-142.11,54.1-197.03C158.4,32.01,205.87,0,255.7,0c37.67,0,74.38,18.49,106.16,53.48,14.55,16.02,27.7,35.12,39.08,56.76h0c27.44,52.19,42.56,115.02,42.56,176.92,0,68.36-18.58,119.97-55.21,153.42-31.87,29.09-76.48,43.85-132.58,43.85Zm0-471.61c-45.26,0-88.88,29.87-122.83,84.11-33.14,52.94-52.15,122.28-52.15,190.24,0,152.45,95.16,184.46,174.98,184.46s174.98-32,174.98-184.46c0-59.86-14.59-120.57-41.09-170.96-10.87-20.68-23.4-38.89-37.22-54.11-29.28-32.24-62.71-49.29-96.68-49.29Z" style="fill:#51357b;"/><path d="m261.25,405.76c-58.53,0-116.7-7.41-174.1-22.23l-3.22-.83-1.17-3.11c-9.85-26.13-14.84-57.23-14.84-92.43,0-42.75,7.37-86.8,21.33-127.39l1.79-5.21,5.42,1c106.38,19.59,213.89,20.53,319.53,2.78l5.4-.91,1.74,5.19c13.33,39.8,20.38,82.86,20.38,124.54,0,36.77-5.49,69.09-16.31,96.07l-1.25,3.1-3.25.75c-53.86,12.45-107.8,18.68-161.43,18.68Zm-167.65-33.8c105.89,26.81,214.48,27.95,322.91,3.4,9.41-24.83,14.18-54.48,14.18-88.2,0-38.51-6.22-78.25-18.02-115.29-103.56,16.76-208.82,15.85-313.06-2.72-12.36,37.8-18.89,78.49-18.89,118.02,0,32.25,4.33,60.76,12.88,84.8Z" style="fill:#51357b;"/><path d="m364.27,133.5c-2.3,0-4.53-1.25-5.67-3.42-9.02-17.14-19.39-32.23-30.85-44.84-14-15.41-29.13-26.64-44.98-33.39-3.25-1.39-4.77-5.15-3.38-8.4,1.38-3.25,5.15-4.76,8.4-3.38,17.57,7.48,34.2,19.78,49.45,36.57,12.18,13.41,23.18,29.39,32.7,47.49,1.65,3.13.44,7-2.69,8.65-.95.5-1.97.74-2.97.74Z" style="fill:#fff;"/></svg>