<svg id="a" xmlns="http://www.w3.org/2000/svg" viewBox="0 0 512 512"><ellipse cx="256" cy="467.55" rx="183.71" ry="44.45" style="fill:#9b8fc1;"/><g><path d="m180.74,149.96c0,59.74,28.25,112.87,72.12,146.78,43.86-33.92,72.12-87.05,72.12-146.78,0-56.61-25.38-107.29-65.37-141.31-3.9-3.32-9.59-3.32-13.5,0-39.99,34.01-65.37,84.69-65.37,141.31Z" style="fill:#f05d84;"/><path d="m252.86,304.51l-3.76-2.91c-47.35-36.61-74.5-91.88-74.5-151.65,0-56.28,24.61-109.49,67.53-145.99,6.22-5.29,15.25-5.29,21.46,0,42.92,36.5,67.53,89.72,67.53,145.99,0,59.76-27.16,115.04-74.5,151.65l-3.76,2.91Zm0-292.2c-.98,0-1.97.34-2.77,1.02-40.16,34.16-63.2,83.96-63.2,136.62s23.98,104.69,65.97,138.93c41.99-34.24,65.97-84.6,65.97-138.93s-23.04-102.46-63.2-136.62c-.8-.68-1.78-1.02-2.76-1.02Z" style="fill:#51357b;"/></g><g><path d="m245.15,481.26c-8.94,0-15.94-5.7-15.94-12.99v-170.47h47.29v170.47c0,7.28-7,12.99-15.94,12.99h-15.42Z" style="fill:#447336;"/><path d="m270.36,303.95v164.32c0,3.78-4.38,6.84-9.79,6.84h-15.42c-5.41,0-9.79-3.06-9.79-6.84v-164.32h35m12.3-12.3h-59.59v176.62c0,10.73,9.7,19.14,22.08,19.14h15.42c12.38,0,22.08-8.41,22.08-19.14v-176.62h0Z" style="fill:#51357b;"/></g><g><g><path d="m203.1,365.76c-5.81-5.81-11.94-11.11-18.33-15.9-27.02-20.26-58.71-31.38-90.87-33.39-4.42-.28-8.09,3.39-7.81,7.81,2.48,39.76,18.9,78.81,49.29,109.2,30.38,30.38,69.44,46.81,109.2,49.29,4.42.28,8.09-3.39,7.81-7.81-2.13-34.1-14.51-67.67-37.15-95.71-3.76-4.66-7.81-9.16-12.14-13.49" style="fill:#c2d83c;"/><path d="m107.73,317.91c-4.59-.66-9.2-1.15-13.82-1.44-4.42-.28-8.09,3.39-7.81,7.81,2.48,39.76,18.9,78.81,49.29,109.2,25.64,25.64,57.45,41.34,90.65,47.1-23.55-8.96-45.63-22.92-64.6-41.89-33.56-33.56-51.46-76.85-53.7-120.78Z" style="fill:#90c03e;"/><path d="m245.03,488.94c-.28,0-.56,0-.83-.03-42.7-2.66-82.89-20.8-113.17-51.08-30.27-30.27-48.41-70.46-51.08-113.16-.24-3.87,1.19-7.66,3.94-10.4,2.74-2.74,6.51-4.17,10.4-3.93,34.26,2.13,66.82,14.1,94.18,34.6,6.67,5,13.06,10.55,18.99,16.47h0c4.43,4.43,8.66,9.13,12.57,13.97,22.91,28.37,36.23,62.67,38.51,99.19.24,3.86-1.19,7.65-3.93,10.39-2.54,2.55-5.99,3.97-9.56,3.97Zm-151.59-166.33c-.41,0-.69.19-.85.36-.18.18-.39.49-.36.94,2.48,39.71,19.35,77.08,47.5,105.23s65.53,45.02,105.23,47.5c.44.03.76-.18.94-.36s.39-.49.36-.93c-2.12-33.96-14.5-65.86-35.8-92.23-3.64-4.51-7.58-8.88-11.7-13.01-5.52-5.52-11.46-10.68-17.67-15.33-25.43-19.06-55.71-30.18-87.56-32.17-.03,0-.06,0-.08,0Z" style="fill:#51357b;"/></g><g><path d="m302.62,365.76c5.81-5.81,11.94-11.11,18.33-15.9,27.02-20.26,58.71-31.38,90.87-33.39,4.42-.28,8.09,3.39,7.81,7.81-2.48,39.76-18.9,78.81-49.29,109.2-30.38,30.38-69.44,46.81-109.2,49.29-4.42.28-8.09-3.39-7.81-7.81,2.13-34.1,14.51-67.67,37.15-95.71,3.76-4.66,7.81-9.16,12.14-13.49" style="fill:#c2d83c;"/><path d="m397.99,317.91c4.59-.66,9.2-1.15,13.82-1.44,4.42-.28,8.09,3.39,7.81,7.81-2.48,39.76-18.9,78.81-49.29,109.2-25.64,25.64-57.45,41.34-90.65,47.1,23.55-8.96,45.63-22.92,64.6-41.89,33.56-33.56,51.46-76.85,53.7-120.78Z" style="fill:#90c03e;"/><path d="m260.69,488.94c-3.57,0-7.02-1.42-9.56-3.97-2.74-2.74-4.17-6.53-3.93-10.39,2.28-36.53,15.59-70.83,38.51-99.19,3.9-4.83,8.13-9.53,12.57-13.97h0c5.93-5.93,12.32-11.48,18.99-16.47,27.35-20.5,59.92-32.47,94.18-34.6,3.85-.23,7.65,1.19,10.4,3.93,2.74,2.74,4.18,6.53,3.94,10.4-2.66,42.7-20.8,82.89-51.08,113.16-30.27,30.27-70.46,48.41-113.16,51.08-.28.02-.56.03-.84.03Zm46.28-118.83c-4.13,4.13-8.07,8.51-11.7,13.01-21.3,26.37-33.68,58.26-35.8,92.23-.03.45.18.76.36.94s.52.41.94.36c39.71-2.48,77.08-19.35,105.23-47.5,28.15-28.15,45.02-65.53,47.5-105.23.03-.45-.18-.76-.36-.94-.18-.18-.47-.4-.94-.36-31.86,1.98-62.14,13.11-87.57,32.17-6.2,4.65-12.14,9.81-17.67,15.33Z" style="fill:#51357b;"/></g></g><g><path d="m371.48,41.91h-18.03c-45.75,0-84.78,28.44-100.59,68.57-15.81-40.13-54.84-68.57-100.59-68.57h-18.03c-5.69,0-10.3,4.61-10.3,10.3v131.5c0,67.51,54.13,122.28,121.34,123.51v.12h15.17v-.12c67.21-1.23,121.34-56.01,121.34-123.51V52.21c0-5.69-4.61-10.3-10.3-10.3Z" style="fill:#f05d84;"/><path d="m161.86,183.7V52.11c0-3.47,1.61-6.53,4.06-8.37-5.93-1.19-12.03-1.84-18.28-1.84h-16.12c-4.19,0-7.58,3.4-7.58,7.58v128.92c0,71.2,57.72,128.92,128.92,128.92h0v-3.9c-52.33-13.72-91-62.13-91-119.73Z" style="fill:#e93e67;"/><path d="m252.86,303.44v3.9s0,0,0,0c71.2,0,128.92-57.72,128.92-128.92V49.49c0-4.19-3.4-7.58-7.58-7.58h-16.12c-6.25,0-12.35.65-18.28,1.84,2.45,1.84,4.06,4.9,4.06,8.37v131.59c0,57.61-38.67,106.01-91,119.73Z" style="fill:#e93e67;"/><path d="m123.94,183.44v.27c0,67.51,54.13,122.28,121.34,123.51v.12h15.17v-.12c67.21-1.23,121.34-56.01,121.34-123.51V52.21c0-5.69-4.61-10.3-10.3-10.3h-18.03c-45.75,0-84.78,28.44-100.59,68.57-15.81-40.13-54.84-68.57-100.59-68.57h-18.03c-5.69,0-10.3,4.61-10.3,10.3v30.81" style="fill:none;"/><path d="m260.44,313.48h-15.17c-.46,0-.91-.05-1.34-.15-33.7-.93-65.23-14.65-88.91-38.71-24.01-24.39-37.23-56.68-37.23-90.92V52.21c0-9.07,7.38-16.45,16.45-16.45h18.03c42.65,0,80.81,23.19,100.59,60.11,19.78-36.92,57.94-60.11,100.59-60.11h18.03c9.07,0,16.45,7.38,16.45,16.45v131.5c0,34.24-13.22,66.53-37.23,90.92-23.69,24.07-55.23,37.79-88.94,38.71-.42.1-.86.15-1.31.15Zm-13.97-12.3h12.78c.35-.07.7-.11,1.07-.12,63.58-1.17,115.3-53.82,115.3-117.36V52.21c0-2.29-1.86-4.15-4.15-4.15h-18.03c-42.15,0-79.39,25.39-94.87,64.68-.93,2.35-3.19,3.89-5.72,3.89s-4.79-1.54-5.72-3.89c-15.49-39.29-52.72-64.68-94.87-64.68h-18.03c-2.29,0-4.15,1.86-4.15,4.15v131.5c0,63.55,51.72,116.2,115.3,117.36.37,0,.74.05,1.09.12Z" style="fill:#51357b;"/></g><g><path d="m187.67,174.7c0,54,25.54,102.02,65.19,132.68,39.65-30.66,65.19-78.68,65.19-132.68,0-51.18-22.94-96.99-59.09-127.73-3.53-3-8.67-3-12.2,0-36.15,30.75-59.09,76.56-59.09,127.73Z" style="fill:#dd325b;"/><path d="m252.86,313.52c-1.33,0-2.65-.43-3.76-1.28-42.94-33.2-67.57-83.34-67.57-137.54,0-51.04,22.32-99.31,61.25-132.42,5.85-4.97,14.33-4.97,20.17,0,38.93,33.11,61.25,81.37,61.25,132.42,0,54.21-24.63,104.34-67.57,137.54-1.11.86-2.43,1.28-3.76,1.28Zm0-262.66c-.75,0-1.5.26-2.12.78-36.17,30.77-56.92,75.62-56.92,123.05s21.46,93.98,59.04,124.82c37.58-30.83,59.04-76.06,59.04-124.82s-20.75-92.28-56.92-123.05c-.61-.52-1.36-.78-2.12-.78Z" style="fill:#51357b;"/></g><g style="opacity:.9;"><path d="m203.84,418.15c-2.19,0-4.3-1.17-5.42-3.23-.31-.57-20.61-37.33-55.01-51.48-3.14-1.29-4.64-4.89-3.35-8.02,1.29-3.14,4.89-4.65,8.03-3.35,38.63,15.89,60.25,55.34,61.16,57.01,1.61,2.99.5,6.72-2.49,8.33-.93.5-1.93.74-2.91.74Z" style="fill:#fff;"/></g></svg>