<svg id="a" xmlns="http://www.w3.org/2000/svg" viewBox="0 0 512 512"><ellipse cx="256.09" cy="459.28" rx="217.92" ry="52.72" style="fill:#9b8fc1;"/><g><g><path d="m146.05,438.58c-1.98-1.69-4-4.27-5.92-6.06-3.37-3.14-6.52-6.4-9.43-9.76-2.92-3.36-5.61-6.83-8.07-10.39-14.78-21.34-21.46-45.88-20.57-70.18,1.19-32.39,15.82-64.35,42.64-87.7,1.57-1.38,3.12-2.89,4.65-4.49.22-.23.44-.49.66-.73,17.52-19.04,31.22-54.23,37.3-110.64-11.26,27.27-30.8,54.84-64.86,71.84-52.58,26.24-73.14,46.19-87.74,71.83-10.67,18.74-13.37,40.77-13.37,57.97,0,60.54,43.83,89.12,125.81,99.17-.23-.19-.47-.37-.71-.56-.12-.11-.26-.2-.38-.31" style="fill:#fff5df;"/><path d="m170.95,449.72l-24.7-3.03c-56.76-6.97-132.21-25.57-132.21-106.41,0-16.62,2.49-40.79,14.33-61.58,14.45-25.38,34.69-46.73,90.82-74.75,27.8-13.87,48.45-36.78,61.38-68.09l19.45-47.09-5.46,50.66c-5.84,54.27-19.03,92.9-39.18,114.79l-.66.74c-1.85,1.94-3.52,3.56-5.2,5.04-24.39,21.23-39.02,51.29-40.16,82.49-.86,23.56,5.81,46.3,19.28,65.76,2.32,3.36,4.87,6.64,7.58,9.76,2.75,3.17,5.74,6.27,8.89,9.21.98.91,1.99,2,3.01,3.11.92,1,1.87,2.03,2.62,2.68l.29.23c.27.2.52.4.78.62l19.15,15.89Zm2.95-272.67c-12.89,17-29,30.38-48.19,39.95-52.83,26.37-71.56,45.92-84.66,68.91-10.26,18.02-12.42,39.51-12.42,54.36,0,48.54,30.37,76.38,97.8,88.67-.42-.47-.83-.94-1.24-1.41-3.05-3.51-5.93-7.22-8.55-11.02-15.28-22.06-22.84-47.85-21.86-74.59,1.29-35.21,17.74-69.09,45.14-92.94,1.32-1.16,2.69-2.48,4.15-4.02l.54-.6c12.78-13.89,22.7-36.82,29.29-67.33Z" style="fill:#51357b;"/></g><g><path d="m312.89,253.88c1.48,1.58,2.98,3.06,4.51,4.39,3.35,2.92,6.51,5.97,9.49,9.12,11.87,12.63,20.67,27.05,26.21,42.29,4.16,11.43,6.49,23.33,6.94,35.29.15,3.98.09,7.98-.19,11.96-1.1,15.94-5.6,31.75-13.66,46.48-.76,1.39-1.65,2.74-2.48,4.11,48.76-22.48,88.45-61.61,110.45-95.93-2.01-9.91-5.33-20.01-10.63-29.3-14.61-25.64-35.17-45.59-87.74-71.83-59.21-29.55-84.16-127.33-84.16-127.33,1.67,90.17,17.87,145.05,40.64,170.05.21.23.42.46.63.69" style="fill:#fff5df;"/><path d="m325.08,424.14l13.19-21.71c.52-.84,1.05-1.68,1.51-2.53,7.43-13.57,11.73-28.2,12.78-43.47.26-3.74.32-7.5.17-11.18-.42-11.24-2.6-22.37-6.5-33.08-5.33-14.66-13.63-28.05-24.67-39.79-2.83-3-5.85-5.9-8.97-8.62-1.65-1.43-3.31-3.04-5.05-4.91l-.64-.69c-26.3-28.88-41.01-89.33-42.59-174.89l-1.16-62.57,15.52,60.62c.24.95,24.85,94.91,80.36,122.61,56.13,28.02,76.36,49.37,90.81,74.75,5.21,9.13,9.07,19.72,11.44,31.46l.59,2.89-1.6,2.49c-26.37,41.13-68.82,78-113.54,98.62l-21.67,9.99Zm-6.86-175.24c1.37,1.47,2.7,2.76,3.96,3.85,3.49,3.04,6.85,6.28,10.01,9.63,12.41,13.2,21.75,28.28,27.76,44.8,4.42,12.14,6.9,24.76,7.37,37.52.16,4.18.1,8.47-.2,12.73-.79,11.52-3.21,22.71-7.2,33.44,39.12-22.73,69.43-55.06,86.46-80.71-2.08-9.05-5.17-17.2-9.19-24.24-13.1-23-31.83-42.55-84.66-68.92-34.07-17-57.07-54.42-70.98-85.13,5.22,55.61,17.66,96.16,36.11,116.42l.42.46-5.19,5.14,5.33-4.98Z" style="fill:#51357b;"/></g></g><g><path d="m238.61,424.28c37.12,5.52,72.72-2.08,104.48-16.71,29.26-48.53,18.67-110.22-26.2-149.31-26.05-22.68-44.9-80.86-45.92-181.95v-42.3c0-3.02-1.98-5.69-4.88-6.56L199.84,7.59c-4.39-1.32-8.81,1.97-8.81,6.56v39.09c0,8.45.15,12.52,0,15.06,0,106.14-19.33,162.95-46.02,186.2-53.63,46.71-58.53,127.83-4.57,178.03,1.93,1.79,3.94,4.37,5.92,6.06,24.55,20.88,53.45,34.2,85,34.2,20.38,0,39.64-5.32,57.35-14.68-31.46-14.31-50.58-33.97-49.29-33.82" style="fill:#e5dfa8;"/><path d="m231.36,480.08c-31.06,0-62.08-12.43-89.73-35.94-1.44-1.23-2.72-2.62-3.95-3.97-.75-.81-1.48-1.63-2.21-2.3-26.67-24.81-41.03-57.99-40.45-93.43.6-36.15,17.07-70.94,45.2-95.44,19.85-17.29,43.51-62.67,43.51-180.7v-.44c.09-1.28.07-3.31.05-6.38-.02-2.17-.05-4.86-.05-8.24V14.15c0-4.51,2.08-8.65,5.7-11.34,3.62-2.69,8.18-3.5,12.5-2.2l66.25,19.87c6.03,1.81,10.08,7.25,10.08,13.54v42.3c1.23,121.69,27.73,162.79,43.42,176.45,47.59,41.45,58.96,106.66,27.65,158.57l-1.16,1.92-2.04.94c-28.58,13.16-57.19,19.6-85.44,19.17,7.75,5.65,18.25,12.28,31.03,18.09l13.52,6.15-13.13,6.94c-19.5,10.3-39.94,15.53-60.76,15.53Zm-33.04-411.57c-.02,99.05-16.35,163.47-48.52,191.49-25.02,21.79-39.67,52.65-40.19,84.68-.51,31.25,12.2,60.55,35.8,82.51.99.92,2.01,2.02,3.03,3.13.93,1.01,1.89,2.07,2.64,2.7,24.97,21.24,52.73,32.47,80.28,32.47,13.73,0,27.32-2.59,40.54-7.71-10.2-5.67-18.31-11.38-23.91-15.71-17.38-13.44-16.59-16.34-15.67-19.69l1.65-6,6.24.65v.11c31.94,4.65,64.81-.49,97.75-15.25,26.16-45.42,15.68-101.92-25.87-138.12-30.71-26.74-47.46-91.54-48.42-187.37v-42.04l-65.35-19.61v38.49c0,3.33.02,5.97.04,8.11.03,3.23.05,5.41-.04,7.16Z" style="fill:#51357b;"/></g><g><path d="m473.03,262.96c0,49.41-108.39,179.97-233.92,161.32-2.78-.31,88.26,90.42,193.59,24.2,100.38-63.12,40.33-185.52,40.33-185.52" style="fill:#fff5df;"/><path d="m352.85,480.03c-57.25,0-100.39-33.58-111.26-42.91-7.68-6.59-11.58-10.29-9.22-15.71,1.27-2.93,4.35-4.72,7.54-4.37,8.1,1.2,16.05,1.76,23.8,1.76,60.87,0,110.26-34.12,135.88-56.2,42.97-37.05,66.15-78.98,66.15-99.63,0-3.39,2.34-6.34,5.64-7.1,3.31-.77,6.7.85,8.2,3.89.63,1.28,61.73,129.06-43,194.91-29.65,18.65-58.11,25.38-83.74,25.38Zm-92.26-46.65c28.64,21.03,93.83,55.71,168.23,8.93,68.93-43.34,57.17-117.53,45.89-154.25-10.53,26.66-34.93,59.14-65.59,85.57-27.71,23.9-81.72,60.95-148.53,59.75Z" style="fill:#51357b;"/></g><g style="opacity:.9;"><path d="m150.19,393.85c-3.1,0-5.97-1.99-6.95-5.1-4.41-13.99-7.01-27.58-7.75-40.42-.93-16.21,1.14-30.76,6.15-43.25,1.5-3.74,5.74-5.55,9.48-4.06s5.56,5.74,4.06,9.48c-4.2,10.49-5.92,22.94-5.12,37,.66,11.63,3.05,24.04,7.1,36.87,1.21,3.84-.92,7.94-4.76,9.15-.73.23-1.47.34-2.2.34Z" style="fill:#fff;"/></g><path d="m228.96,110.86c-4.03,0-7.29-3.26-7.29-7.29V24.8c0-4.03,3.26-7.29,7.29-7.29s7.29,3.26,7.29,7.29v78.77c0,4.03-3.26,7.29-7.29,7.29Z" style="fill:#51357b;"/></svg>