<svg id="a" xmlns="http://www.w3.org/2000/svg" viewBox="0 0 512 512"><ellipse cx="256" cy="462.65" rx="203.98" ry="49.35" style="fill:#9b8fc1;"/><g><path d="m399.97,6.83c-7.07,0-13.13,5.52-15.76,13.4-2.63-7.88-8.69-13.4-15.76-13.4s-13.13,5.52-15.76,13.4c-2.63-7.88-8.69-13.4-15.76-13.4s-13.13,5.52-15.76,13.4c-2.63-7.88-8.69-13.4-15.76-13.4s-13.13,5.52-15.76,13.39c-2.63-7.87-8.69-13.39-15.76-13.39s-13.13,5.52-15.76,13.4c-2.63-7.88-8.69-13.4-15.76-13.4s-13.13,5.52-15.76,13.4c-2.63-7.88-8.69-13.4-15.76-13.4s-13.13,5.52-15.76,13.4c-2.63-7.88-8.69-13.4-15.76-13.4s-13.13,5.52-15.76,13.4c-2.63-7.88-8.69-13.4-15.76-13.4s-13.13,5.52-15.76,13.4c-2.63-7.88-8.69-13.4-15.76-13.4-9.47,0-17.16,9.91-17.16,22.13v327.55c0,12.23,7.68,22.13,17.16,22.13,7.07,0,13.13-5.52,15.76-13.4,2.63,7.88,8.69,13.4,15.76,13.4s13.13-5.52,15.76-13.4c2.63,7.88,8.69,13.4,15.76,13.4s13.13-5.52,15.76-13.4c2.63,7.88,8.69,13.4,15.76,13.4s13.13-5.52,15.76-13.4c2.63,7.88,8.69,13.4,15.76,13.4s13.13-5.52,15.76-13.4c2.63,7.88,8.69,13.4,15.76,13.4s13.13-5.52,15.76-13.39c2.63,7.87,8.69,13.39,15.76,13.39s13.13-5.52,15.76-13.4c2.63,7.88,8.69,13.4,15.76,13.4s13.13-5.52,15.76-13.4c2.63,7.88,8.69,13.4,15.76,13.4s13.13-5.52,15.76-13.4c2.63,7.88,8.69,13.4,15.76,13.4,9.47,0,17.16-9.91,17.16-22.13V28.96c0-12.23-7.68-22.13-17.16-22.13Z" style="fill:#0fab50;"/><path d="m399.97,385.47c-5.95,0-11.49-2.59-15.76-7.06-4.26,4.47-9.81,7.06-15.76,7.06s-11.5-2.59-15.76-7.07c-4.26,4.47-9.81,7.07-15.76,7.07s-11.5-2.59-15.76-7.06c-4.26,4.47-9.81,7.06-15.76,7.06s-11.49-2.59-15.76-7.06c-4.26,4.47-9.81,7.06-15.75,7.06s-11.49-2.59-15.76-7.07c-4.26,4.47-9.81,7.07-15.76,7.07s-11.49-2.59-15.76-7.06c-4.26,4.47-9.81,7.06-15.76,7.06s-11.49-2.59-15.76-7.06c-4.26,4.47-9.81,7.06-15.76,7.06s-11.49-2.59-15.76-7.07c-4.26,4.47-9.81,7.07-15.76,7.07s-11.49-2.59-15.76-7.06c-4.26,4.47-9.81,7.06-15.76,7.06-13.23,0-23.99-12.99-23.99-28.96V28.96c0-15.97,10.76-28.96,23.99-28.96,5.95,0,11.49,2.59,15.76,7.06,4.26-4.47,9.81-7.06,15.76-7.06s11.5,2.59,15.76,7.07c4.26-4.47,9.81-7.07,15.76-7.07s11.49,2.59,15.76,7.06c4.26-4.47,9.81-7.06,15.76-7.06s11.49,2.59,15.76,7.06c4.26-4.47,9.81-7.06,15.76-7.06s11.49,2.59,15.76,7.07c4.26-4.47,9.81-7.07,15.76-7.07s11.49,2.59,15.76,7.06c4.26-4.47,9.81-7.06,15.75-7.06s11.49,2.59,15.76,7.06c4.26-4.47,9.81-7.06,15.76-7.06s11.5,2.59,15.76,7.07c4.26-4.47,9.81-7.07,15.76-7.07s11.5,2.59,15.76,7.06c4.26-4.47,9.81-7.06,15.76-7.06,13.23,0,23.99,12.99,23.99,28.96v327.55c0,15.97-10.76,28.96-23.99,28.96Zm-15.76-27.05c2.94,0,5.54,1.88,6.47,4.66,1.74,5.22,5.47,8.73,9.28,8.73,5.6,0,10.33-7.01,10.33-15.31V28.96c0-8.3-4.73-15.31-10.33-15.31-3.81,0-7.54,3.51-9.28,8.73-.93,2.79-3.54,4.66-6.47,4.66h0c-2.94,0-5.55-1.88-6.47-4.67-1.74-5.22-5.47-8.73-9.28-8.73s-7.54,3.51-9.28,8.73c-.93,2.79-3.54,4.66-6.47,4.66s-5.54-1.88-6.47-4.66c-1.74-5.22-5.47-8.73-9.28-8.73s-7.54,3.51-9.28,8.73c-.93,2.79-3.54,4.67-6.47,4.67s-5.54-1.88-6.47-4.66c-1.74-5.22-5.47-8.73-9.28-8.73s-7.54,3.51-9.28,8.73c-.93,2.79-3.54,4.66-6.47,4.66s-5.54-1.88-6.47-4.66c-1.74-5.22-5.47-8.73-9.28-8.73s-7.54,3.51-9.28,8.73c-.93,2.79-3.54,4.67-6.48,4.67s-5.55-1.88-6.47-4.66c-1.74-5.22-5.47-8.73-9.28-8.73s-7.54,3.51-9.28,8.73c-.93,2.79-3.54,4.67-6.48,4.67s-5.55-1.88-6.48-4.67c-1.74-5.22-5.47-8.73-9.28-8.73s-7.54,3.51-9.28,8.73c-.93,2.79-3.54,4.67-6.48,4.67s-5.55-1.88-6.48-4.67c-1.74-5.22-5.47-8.73-9.28-8.73s-7.54,3.51-9.28,8.73c-.93,2.79-3.54,4.66-6.47,4.66h0c-2.94,0-5.55-1.88-6.48-4.67-1.74-5.22-5.47-8.73-9.28-8.73s-7.54,3.51-9.28,8.73c-.93,2.79-3.54,4.67-6.48,4.67s-5.55-1.88-6.48-4.67c-1.74-5.22-5.47-8.73-9.28-8.73-5.6,0-10.33,7.01-10.33,15.31v327.55c0,8.3,4.73,15.31,10.33,15.31,3.81,0,7.54-3.51,9.28-8.73.93-2.79,3.54-4.67,6.48-4.67s5.55,1.88,6.48,4.67c1.74,5.22,5.47,8.73,9.28,8.73s7.54-3.51,9.28-8.73c.93-2.79,3.54-4.67,6.48-4.67s5.55,1.88,6.47,4.66c1.74,5.22,5.47,8.73,9.28,8.73s7.54-3.51,9.28-8.73c.93-2.79,3.54-4.67,6.48-4.67s5.55,1.88,6.48,4.67c1.74,5.22,5.47,8.73,9.28,8.73s7.54-3.51,9.28-8.73c.93-2.79,3.54-4.67,6.48-4.67s5.55,1.88,6.48,4.67c1.74,5.22,5.47,8.73,9.28,8.73s7.54-3.51,9.28-8.73c.93-2.79,3.54-4.66,6.47-4.66h0c2.94,0,5.55,1.88,6.48,4.67,1.74,5.22,5.47,8.73,9.28,8.73s7.54-3.51,9.28-8.73c.93-2.78,3.54-4.66,6.47-4.66h0c2.94,0,5.54,1.88,6.47,4.66,1.74,5.22,5.47,8.73,9.28,8.73s7.54-3.51,9.28-8.73c.93-2.79,3.54-4.66,6.47-4.66h0c2.94,0,5.55,1.88,6.47,4.67,1.74,5.22,5.47,8.73,9.28,8.73s7.54-3.51,9.28-8.73c.93-2.79,3.54-4.66,6.47-4.66s5.54,1.88,6.47,4.66c1.74,5.22,5.47,8.73,9.28,8.73s7.54-3.51,9.28-8.73c.93-2.79,3.54-4.67,6.47-4.67Z" style="fill:#51357b;"/></g><g><path d="m163.7,364.54c-3.77,0-6.83-3.06-6.83-6.83V50.52c0-3.77,3.06-6.83,6.83-6.83s6.83,3.06,6.83,6.83v307.2c0,3.77-3.06,6.83-6.83,6.83Z" style="fill:#0a8e46;"/><path d="m191.01,364.54c-3.77,0-6.83-3.06-6.83-6.83V50.52c0-3.77,3.06-6.83,6.83-6.83s6.83,3.06,6.83,6.83v307.2c0,3.77-3.06,6.83-6.83,6.83Z" style="fill:#0a8e46;"/><path d="m218.31,364.54c-3.77,0-6.83-3.06-6.83-6.83V50.52c0-3.77,3.06-6.83,6.83-6.83s6.83,3.06,6.83,6.83v307.2c0,3.77-3.06,6.83-6.83,6.83Z" style="fill:#0a8e46;"/><path d="m245.62,364.54c-3.77,0-6.83-3.06-6.83-6.83V50.52c0-3.77,3.06-6.83,6.83-6.83s6.83,3.06,6.83,6.83v307.2c0,3.77-3.06,6.83-6.83,6.83Z" style="fill:#0a8e46;"/><path d="m272.93,364.54c-3.77,0-6.83-3.06-6.83-6.83V50.52c0-3.77,3.06-6.83,6.83-6.83s6.83,3.06,6.83,6.83v307.2c0,3.77-3.06,6.83-6.83,6.83Z" style="fill:#0a8e46;"/><path d="m300.23,364.54c-3.77,0-6.83-3.06-6.83-6.83V50.52c0-3.77,3.06-6.83,6.83-6.83s6.83,3.06,6.83,6.83v307.2c0,3.77-3.06,6.83-6.83,6.83Z" style="fill:#0a8e46;"/><path d="m327.54,364.54c-3.77,0-6.83-3.06-6.83-6.83V50.52c0-3.77,3.06-6.83,6.83-6.83s6.83,3.06,6.83,6.83v307.2c0,3.77-3.06,6.83-6.83,6.83Z" style="fill:#0a8e46;"/><path d="m354.85,364.54c-3.77,0-6.83-3.06-6.83-6.83V50.52c0-3.77,3.06-6.83,6.83-6.83s6.83,3.06,6.83,6.83v307.2c0,3.77-3.06,6.83-6.83,6.83Z" style="fill:#0a8e46;"/><path d="m382.15,364.54c-3.77,0-6.83-3.06-6.83-6.83V50.52c0-3.77,3.06-6.83,6.83-6.83s6.83,3.06,6.83,6.83v307.2c0,3.77-3.06,6.83-6.83,6.83Z" style="fill:#0a8e46;"/><path d="m136.39,364.54c-3.77,0-6.83-3.06-6.83-6.83V50.52c0-3.77,3.06-6.83,6.83-6.83s6.83,3.06,6.83,6.83v307.2c0,3.77-3.06,6.83-6.83,6.83Z" style="fill:#0a8e46;"/></g><g><path d="m418.18,265.85c0,6.72-.17,13.21-.51,19.5h-.07c-8-11.52-19.89-17.28-31.78-17.28s-23.79,5.76-31.79,17.28c-7.99,11.53-19.88,17.29-31.78,17.29s-23.78-5.76-31.78-17.29c-8-11.52-19.88-17.28-31.78-17.28s-23.78,5.76-31.8,17.28c-8.01,11.53-19.88,17.29-31.78,17.29s-23.76-5.76-31.78-17.29c-4.27-6.15-9.64-10.66-15.53-13.53-15.8-7.69-35.32-3.59-47.14,12.33-.3-5.91-.44-12.02-.44-18.3,0-12.49.58-24.96,1.7-37.31,12.61-15.41,32.81-18.5,48.49-9.28,4.87,2.85,9.3,6.89,12.92,12.11,8.02,11.53,19.89,17.29,31.78,17.29s23.77-5.76,31.78-17.29c8.02-11.52,19.91-17.28,31.8-17.28s23.78,5.76,31.78,17.28c8,11.53,19.89,17.29,31.78,17.29s23.79-5.76,31.78-17.29c8-11.52,19.89-17.28,31.79-17.28s22.81,5.3,30.78,15.9c1.04,11.88,1.57,23.87,1.57,35.87Z" style="fill:#f2685d;"/><path d="m322.25,309.47c-14.84,0-28.47-7.37-37.39-20.23-6.33-9.11-15.87-14.34-26.17-14.34s-19.85,5.23-26.2,14.35c-8.92,12.85-22.55,20.22-37.38,20.22s-28.44-7.37-37.38-20.22c-3.47-5.01-7.82-8.8-12.92-11.29-13.43-6.54-29.33-2.31-38.66,10.26l-11.35,15.28-.95-19.01c-.3-6-.45-12.27-.45-18.65,0-12.52.58-25.29,1.73-37.93l.19-2.09,1.33-1.62c14.48-17.68,38.01-22.14,57.23-10.85,5.89,3.44,10.96,8.19,15.07,14.1,6.35,9.12,15.89,14.36,26.17,14.36s19.83-5.23,26.17-14.36c8.95-12.85,22.58-20.21,37.41-20.21s28.46,7.37,37.39,20.21c6.33,9.13,15.87,14.36,26.17,14.36s19.85-5.23,26.17-14.35c8.93-12.85,22.55-20.22,37.4-20.22s27.33,6.79,36.24,18.62l1.17,1.56.17,1.95c1.06,12.17,1.6,24.44,1.6,36.47,0,6.77-.17,13.45-.52,19.86l-.34,6.46h-10.04l-2.11-2.93c-6.33-9.12-15.87-14.35-26.17-14.35s-19.85,5.23-26.18,14.35c-8.91,12.85-22.54,20.23-37.39,20.23Zm-63.56-48.23c14.84,0,28.47,7.37,37.39,20.21,6.33,9.13,15.87,14.36,26.17,14.36s19.85-5.23,26.17-14.35c8.92-12.85,22.55-20.22,37.4-20.22,9.26,0,18.05,2.87,25.52,8.15.01-1.18.02-2.36.02-3.54,0-10.97-.46-22.14-1.38-33.25-6.25-7.46-14.95-11.7-24.15-11.7-10.31,0-19.85,5.23-26.18,14.35-8.91,12.85-22.54,20.23-37.39,20.23s-28.47-7.37-37.39-20.23c-6.33-9.11-15.87-14.34-26.17-14.34s-19.84,5.23-26.2,14.35c-8.92,12.85-22.55,20.22-37.38,20.22s-28.44-7.37-37.38-20.22c-2.97-4.27-6.59-7.67-10.76-10.11-12.74-7.49-28.26-4.89-38.44,6.19-.98,11.52-1.48,23.12-1.48,34.52,0,.97,0,1.93.01,2.89,12.91-8.61,29.27-10.09,43.73-3.05,7.13,3.48,13.4,8.93,18.15,15.77,6.35,9.12,15.89,14.36,26.17,14.36s19.83-5.23,26.17-14.36c8.94-12.85,22.58-20.21,37.41-20.21Z" style="fill:#51357b;"/></g><g><path d="m159.21,466.65c-38.3,0-69.46-34.01-69.46-75.81v-26.83c0-1.12.45-2.26.93-3.15h328.24c3.16,0,6.92.55,6.92,3.15v26.83c0,41.8-31.16,75.81-69.46,75.81h-197.17Z" style="fill:#d1e068;"/><path d="m418.92,367.69s.06,0,.09,0v23.15c0,38.04-28.1,68.98-62.63,68.98h-197.17c-34.53,0-62.63-30.95-62.63-68.98v-23.15h322.34m0-13.65H87.59c-.54,0-4.66,4.46-4.66,9.97v26.83c0,45.64,34.15,82.64,76.28,82.64h197.17c42.13,0,76.28-37,76.28-82.64v-26.83c0-5.51-4.12-9.97-13.75-9.97h0Z" style="fill:#51357b;"/></g></svg>