<svg id="a" xmlns="http://www.w3.org/2000/svg" viewBox="0 0 512 512"><ellipse cx="256" cy="466.56" rx="187.82" ry="45.44" style="fill:#9b8fc1;"/><g><path d="m245.18,483.09c-6.24,0-11.31-5.08-11.31-11.31v-136.58h48.22v136.58c0,6.24-5.08,11.31-11.31,11.31h-25.59Z" style="fill:#447336;"/><path d="m275.8,341.47v130.3c0,2.78-2.25,5.03-5.03,5.03h-25.59c-2.78,0-5.03-2.25-5.03-5.03v-130.3h35.64m12.57-12.57h-60.79v142.87c0,9.7,7.9,17.6,17.6,17.6h25.59c9.7,0,17.6-7.9,17.6-17.6v-142.87h0Z" style="fill:#51357b;"/></g><g><path d="m216.99,64.52c-.94-.05-1.86-.14-2.81-.14-26.61,0-48.18,21.57-48.18,48.18,0,6.99,1.52,13.62,4.2,19.62-26.42.22-47.77,21.69-47.77,48.16s21.35,47.94,47.77,48.16c-2.68,6-4.2,12.62-4.2,19.62,0,26.61,21.57,48.18,48.18,48.18.95,0,1.88-.09,2.81-.14-1.64,4.59-2.58,9.51-2.58,14.67,0,24.06,19.51,43.57,43.57,43.57s43.57-19.51,43.57-43.57c0-5.15-.94-10.08-2.58-14.67.94.05,1.86.14,2.81.14,26.61,0,48.18-21.57,48.18-48.18,0-6.99-1.52-13.62-4.2-19.62,26.42-.22,47.77-21.69,47.77-48.16s-21.35-47.94-47.77-48.16c2.68-6,4.2-12.62,4.2-19.62,0-26.61-21.57-48.18-48.18-48.18-.95,0-1.88.09-2.81.14" style="fill:#b8b3d9;"/><path d="m298.96,64.52c1.64-4.59,2.58-9.51,2.58-14.67,0-24.06-19.51-43.57-43.57-43.57s-43.57,19.51-43.57,43.57c0,5.15.94,10.08,2.58,14.67" style="fill:#b8b3d9;"/></g><g><path d="m257.97,92.58c7.23-15.81,22.73-27,40.99-28.05,1.64-4.59,2.58-9.51,2.58-14.67,0-24.06-19.51-43.57-43.57-43.57s-43.57,19.51-43.57,43.57c0,5.15.94,10.08,2.58,14.67,18.26,1.06,33.76,12.24,40.99,28.05Z" style="fill:#2c51a3;"/><path d="m258.37,93.41c2.55,5.87,3.98,12.34,3.98,19.16s-1.52,13.61-4.19,19.6c.01,0,.03,0,.04,0,19.28,0,35.87,11.35,43.57,27.72,7.7-16.36,24.29-27.72,43.57-27.72.14,0,.27.02.41.02,2.68-6,4.2-12.62,4.2-19.62,0-26.61-21.57-48.18-48.18-48.18-.95,0-1.88.09-2.81.14-5.98,16.72-21.85,28.71-40.59,28.89Z" style="fill:#2c51a3;"/><path d="m214.4,160.36c7.55-16.5,24.1-28.01,43.39-28.17-2.68-6-4.2-12.62-4.2-19.62s1.43-13.28,3.98-19.16c-18.73-.17-34.6-12.17-40.59-28.89-.94-.05-1.86-.14-2.81-.14-26.61,0-48.18,21.57-48.18,48.18,0,6.99,1.52,13.62,4.2,19.62.14,0,.27-.02.41-.02,19.47,0,36.2,11.57,43.8,28.2Z" style="fill:#2c51a3;"/><path d="m258.37,93.41c-.12-.28-.27-.55-.4-.83-.13.28-.28.55-.4.83.14,0,.27.02.4.02s.27-.02.4-.02Z" style="fill:#2c51a3;"/><path d="m257.97,132.55c-7.55,16.5-24.1,28.01-43.39,28.17,2.68,6,4.2,12.62,4.2,19.62s-1.52,13.62-4.2,19.62c19.3.16,35.85,11.67,43.39,28.17,7.55-16.5,24.1-28.01,43.39-28.17-2.68-6-4.2-12.62-4.2-19.62s1.52-13.62,4.2-19.62c-19.3-.16-35.85-11.67-43.39-28.17Z" style="fill:#2c51a3;"/><path d="m258.16,132.16c-.12,0-.24.02-.37.02.06.13.12.25.18.37.06-.13.13-.26.19-.39Z" style="fill:#2c51a3;"/><path d="m214.17,199.94s.03,0,.04,0c-2.67-5.99-4.19-12.61-4.19-19.6s1.52-13.61,4.19-19.6c-.01,0-.03,0-.04,0-19.62,0-36.46-11.74-43.98-28.57-26.42.22-47.77,21.69-47.77,48.16s21.35,47.94,47.77,48.16c7.52-16.82,24.36-28.57,43.98-28.57Z" style="fill:#2c51a3;"/><path d="m214.4,160.36c-.06.13-.13.26-.19.39.12,0,.24-.02.37-.02-.06-.13-.12-.25-.18-.37Z" style="fill:#2c51a3;"/><path d="m393.53,180.34c0-26.47-21.35-47.94-47.77-48.16-7.46,16.71-24.13,28.38-43.57,28.55,2.68,6,4.2,12.62,4.2,19.62s-1.52,13.62-4.2,19.62c19.44.16,36.11,11.84,43.57,28.55,26.42-.22,47.77-21.69,47.77-48.16Z" style="fill:#2c51a3;"/><path d="m301.37,160.73c.14,0,.27.02.41.02s.27-.02.41-.02c-.13-.29-.27-.56-.41-.85-.13.28-.28.56-.41.85Z" style="fill:#2c51a3;"/><path d="m257.97,268.11c-7.23,15.81-22.73,27-40.99,28.05-1.64,4.59-2.58,9.51-2.58,14.67,0,24.06,19.51,43.57,43.57,43.57s43.57-19.51,43.57-43.57c0-5.15-.94-10.08-2.58-14.67-18.26-1.06-33.76-12.24-40.99-28.05Z" style="fill:#2c51a3;"/><path d="m257.57,267.28c-2.55-5.87-3.98-12.34-3.98-19.16s1.52-13.62,4.2-19.62c-19.3-.16-35.85-11.67-43.39-28.17-7.6,16.62-24.33,28.2-43.8,28.2-.14,0-.27-.02-.41-.02-2.68,6-4.2,12.62-4.2,19.62,0,26.61,21.57,48.18,48.18,48.18.95,0,1.88-.09,2.81-.14,5.98-16.72,21.85-28.71,40.59-28.89Z" style="fill:#2c51a3;"/><path d="m214.21,199.94c.06.13.13.26.19.39.06-.12.12-.25.18-.37-.12,0-.24-.02-.37-.02Z" style="fill:#2c51a3;"/><path d="m301.78,200.81c-7.7,16.36-24.29,27.72-43.57,27.72-.01,0-.03,0-.04,0,2.67,5.99,4.19,12.61,4.19,19.6s-1.43,13.28-3.98,19.16c18.73.17,34.6,12.17,40.59,28.89.94.05,1.86.14,2.81.14,26.61,0,48.18-21.57,48.18-48.18,0-6.99-1.52-13.62-4.2-19.62-.14,0-.27.02-.41.02-19.28,0-35.87-11.35-43.57-27.72Z" style="fill:#2c51a3;"/><path d="m301.37,199.96c.13.29.28.56.41.85.13-.28.28-.56.41-.85-.14,0-.27-.02-.41-.02s-.27.02-.41.02Z" style="fill:#2c51a3;"/><path d="m257.79,228.51c.12,0,.24.02.37.02-.06-.13-.13-.26-.19-.39-.06.12-.12.25-.18.37Z" style="fill:#2c51a3;"/><path d="m257.57,267.28c.12.28.27.55.4.83.13-.28.28-.55.4-.83-.14,0-.27-.02-.4-.02s-.27.02-.4.02Z" style="fill:#2c51a3;"/></g><g><g><path d="m206.95,365.01c-5.94-5.94-12.21-11.36-18.74-16.26-27.62-20.71-60.02-32.08-92.9-34.13-4.52-.28-8.27,3.47-7.99,7.99,2.54,40.65,19.33,80.57,50.39,111.64,31.06,31.06,70.99,47.85,111.64,50.39,4.52.28,8.27-3.47,7.99-7.99-2.17-34.86-14.83-69.18-37.98-97.85-3.85-4.76-7.98-9.37-12.41-13.79" style="fill:#c2d83c;"/><path d="m109.44,316.09c-4.69-.68-9.41-1.18-14.13-1.47-4.52-.28-8.27,3.47-7.99,7.99,2.54,40.65,19.33,80.57,50.39,111.64,26.21,26.21,58.73,42.26,92.67,48.16-24.07-9.16-46.65-23.44-66.04-42.83-34.31-34.31-52.6-78.56-54.9-123.48Z" style="fill:#90c03e;"/><path d="m249.82,490.93c-.29,0-.57,0-.86-.03-43.65-2.72-84.74-21.27-115.69-52.22-30.95-30.95-49.49-72.04-52.22-115.69-.25-3.95,1.22-7.83,4.03-10.63,2.8-2.8,6.65-4.28,10.63-4.02,35.03,2.18,68.32,14.42,96.28,35.37,6.82,5.11,13.35,10.78,19.41,16.84,4.52,4.52,8.85,9.33,12.85,14.28,23.42,29,37.04,64.07,39.37,101.41.25,3.95-1.22,7.83-4.02,10.63-2.6,2.6-6.12,4.05-9.77,4.05Zm-154.98-170.04c-.41,0-.7.2-.87.37-.18.18-.39.5-.37.96,2.53,40.59,19.78,78.8,48.56,107.58,28.78,28.78,66.99,46.03,107.58,48.56.46.01.77-.18.96-.37.18-.18.39-.5.37-.96-2.17-34.72-14.82-67.33-36.6-94.29-3.73-4.61-7.75-9.09-11.96-13.29h0c-5.64-5.64-11.72-10.92-18.06-15.67-25.99-19.48-56.95-30.86-89.52-32.89-.03,0-.06,0-.08,0Z" style="fill:#51357b;"/></g><g><path d="m308.69,365.01c5.94-5.94,12.21-11.36,18.74-16.26,27.62-20.71,60.02-32.08,92.9-34.13,4.52-.28,8.27,3.47,7.99,7.99-2.54,40.65-19.33,80.57-50.39,111.64-31.06,31.06-70.99,47.85-111.64,50.39-4.52.28-8.27-3.47-7.99-7.99,2.17-34.86,14.83-69.18,37.98-97.85,3.85-4.76,7.98-9.37,12.41-13.79" style="fill:#c2d83c;"/><path d="m406.19,316.09c4.69-.68,9.41-1.18,14.13-1.47,4.52-.28,8.27,3.47,7.99,7.99-2.54,40.65-19.33,80.57-50.39,111.64-26.21,26.21-58.73,42.26-92.67,48.16,24.07-9.16,46.65-23.44,66.04-42.83,34.31-34.31,52.6-78.56,54.9-123.48Z" style="fill:#90c03e;"/><path d="m265.82,490.93c-3.65,0-7.17-1.45-9.77-4.05-2.8-2.8-4.27-6.68-4.03-10.63,2.33-37.34,15.94-72.41,39.37-101.41,4-4.95,8.32-9.76,12.85-14.29h0s0,0,0,0c6.07-6.07,12.6-11.74,19.41-16.84,27.96-20.96,61.25-33.19,96.28-35.37,3.96-.25,7.83,1.22,10.63,4.02,2.8,2.8,4.27,6.68,4.02,10.63-2.72,43.66-21.27,84.74-52.22,115.69-30.95,30.95-72.04,49.49-115.69,52.22-.29.02-.57.03-.86.03Zm154.99-170.04s-.06,0-.08,0c-32.58,2.03-63.53,13.4-89.52,32.89-6.34,4.75-12.42,10.02-18.06,15.67h0c-4.22,4.22-8.24,8.69-11.96,13.3-21.78,26.96-34.43,59.56-36.6,94.29-.03.46.18.77.37.96.18.18.53.4.96.36,40.6-2.53,78.8-19.78,107.59-48.56,28.78-28.78,46.03-66.99,48.56-107.58.03-.46-.18-.77-.37-.96-.17-.17-.46-.37-.87-.37Z" style="fill:#51357b;"/></g></g><g><path d="m257.97,360.69c-27.49,0-49.86-22.37-49.86-49.86,0-2.84.25-5.68.75-8.49-27.55-2.68-49.16-25.97-49.16-54.21,0-4.79.62-9.5,1.86-14.08-25.72-4.34-45.43-26.84-45.43-53.7s19.71-49.36,45.43-53.7c-1.24-4.58-1.86-9.29-1.86-14.08,0-30.03,24.43-54.47,54.47-54.47.84,0,1.66.05,2.49.11l.69.05c3.47.2,6.11,3.18,5.91,6.64-.2,3.47-3.24,6.1-6.64,5.91l-.81-.05c-.54-.04-1.08-.08-1.63-.08-23.1,0-41.9,18.79-41.9,41.9,0,5.89,1.23,11.62,3.65,17.05.86,1.94.69,4.18-.45,5.96-1.15,1.78-3.11,2.87-5.23,2.89-22.91.19-41.54,18.98-41.54,41.88s18.64,41.68,41.54,41.88c2.12.02,4.09,1.1,5.23,2.89,1.15,1.78,1.32,4.03.45,5.96-2.42,5.43-3.65,11.17-3.65,17.05,0,23.1,18.79,41.9,41.9,41.9.54,0,1.07-.04,1.6-.08l.85-.06c2.1-.11,4.13.82,5.4,2.51,1.26,1.69,1.59,3.9.88,5.88-1.47,4.11-2.22,8.33-2.22,12.55,0,20.56,16.73,37.29,37.29,37.29s37.29-16.73,37.29-37.29c0-4.22-.75-8.44-2.22-12.55-.71-1.99-.38-4.2.88-5.88,1.26-1.69,3.31-2.62,5.4-2.51l.85.06c.53.04,1.06.08,1.6.08,23.1,0,41.9-18.79,41.9-41.9,0-5.89-1.23-11.62-3.65-17.05-.86-1.94-.69-4.18.45-5.96,1.15-1.78,3.11-2.87,5.23-2.89,22.91-.19,41.54-18.98,41.54-41.88s-18.64-41.68-41.54-41.88c-2.12-.02-4.09-1.1-5.23-2.89-1.15-1.78-1.32-4.03-.45-5.96,2.42-5.43,3.65-11.17,3.65-17.05,0-23.1-18.79-41.9-41.9-41.9-.55,0-1.09.04-1.63.08l-.81.05c-3.42.21-6.44-2.44-6.64-5.91-.21-3.46,2.44-6.44,5.91-6.64l.69-.05c.83-.06,1.65-.11,2.49-.11,30.03,0,54.47,24.43,54.47,54.47,0,4.79-.62,9.5-1.86,14.08,25.72,4.34,45.43,26.84,45.43,53.7s-19.71,49.36-45.43,53.7c1.24,4.58,1.86,9.29,1.86,14.08,0,28.24-21.61,51.54-49.16,54.21.5,2.81.75,5.65.75,8.49,0,27.49-22.37,49.86-49.86,49.86Z" style="fill:#51357b;"/><path d="m298.96,70.81c-.7,0-1.42-.12-2.12-.37-3.27-1.17-4.97-4.77-3.8-8.04,1.47-4.11,2.22-8.33,2.22-12.55,0-20.56-16.73-37.29-37.29-37.29s-37.29,16.73-37.29,37.29c0,4.22.75,8.44,2.22,12.55,1.17,3.27-.53,6.87-3.8,8.04-3.27,1.17-6.87-.53-8.04-3.8-1.96-5.47-2.95-11.12-2.95-16.79,0-27.49,22.37-49.86,49.86-49.86s49.86,22.37,49.86,49.86c0,5.66-.99,11.31-2.95,16.79-.92,2.57-3.34,4.17-5.92,4.17Z" style="fill:#51357b;"/></g><g style="opacity:.9;"><path d="m211.09,427.77c-2.36,0-4.63-1.34-5.7-3.62h0c-.18-.39-18.76-39.27-53.13-55.77-3.13-1.5-4.45-5.26-2.94-8.39,1.5-3.13,5.25-4.45,8.39-2.94,38.49,18.49,58.25,60.02,59.07,61.78,1.47,3.14.11,6.89-3.03,8.36-.86.4-1.77.59-2.66.59Z" style="fill:#fff;"/></g></svg>